<?xml version="1.0" encoding="UTF-8"?>
<svg id="Capa_2" data-name="Capa 2" xmlns="http://www.w3.org/2000/svg" viewBox="0 0 470.3 170.43">
  <defs>
    <style>
      .cls-1 {
        fill: #ee7c23;
        stroke-width: 0px;
      }
    </style>
  </defs>
  <g id="Capa_1-2" data-name="Capa 1">
    <g>
      <path class="cls-1" d="M188.38,95.45c1.09-18.19,17.37-23.67,33.24-23.67,14.09,0,31.05,3.15,31.05,20.11v36.8c0,6.43.68,12.86,2.46,15.73h-19.7c-.68-2.19-1.23-4.51-1.37-6.84-6.16,6.43-15.18,8.75-23.8,8.75-13.41,0-24.08-6.7-24.08-21.2,0-16,12.04-19.83,24.08-21.48,11.9-1.78,22.98-1.37,22.98-9.3,0-8.34-5.75-9.58-12.58-9.58-7.39,0-12.17,3.01-12.86,10.67h-19.43ZM233.25,109.81c-3.28,2.87-10.12,3.01-16.14,4.1-6.02,1.23-11.49,3.28-11.49,10.4s5.61,9.03,11.9,9.03c15.18,0,15.73-12.04,15.73-16.28v-7.25Z"/>
      <path class="cls-1" d="M292.34,73.7h14.23v13h-14.23v35.02c0,6.57,1.64,8.21,8.21,8.21,2.05,0,3.97-.14,6.02-.55v15.18c-3.28.55-7.52.68-11.35.68-11.9,0-22.3-2.74-22.3-16.83v-41.72h-11.76v-13h11.76v-21.2h19.42v21.2Z"/>
      <path class="cls-1" d="M340.49,73.7h14.23v13h-14.23v35.02c0,6.57,1.64,8.21,8.21,8.21,2.05,0,3.97-.14,6.02-.55v15.18c-3.28.55-7.52.68-11.35.68-11.9,0-22.3-2.74-22.3-16.83v-41.72h-11.76v-13h11.76v-21.2h19.43v21.2Z"/>
      <path class="cls-1" d="M383.99,62.75h-19.42v-16h19.42v16ZM364.56,73.7h19.42v70.72h-19.42v-70.72Z"/>
      <path class="cls-1" d="M433.64,71.78c22.3,0,36.66,14.77,36.66,37.34s-14.36,37.21-36.66,37.21-36.52-14.77-36.52-37.21,14.36-37.34,36.52-37.34ZM433.64,131.7c13.27,0,17.24-11.35,17.24-22.57s-3.97-22.71-17.24-22.71-17.1,11.35-17.1,22.71,3.97,22.57,17.1,22.57Z"/>
    </g>
    <g>
      <g>
        <path class="cls-1" d="M0,85.41v.23c0-.08,0-.16.01-.24H0ZM0,85.99c0,.11,0,.26.01.37-.01-.12-.01-.25-.01-.37ZM59.7,167.03c.24.08.5.14.74.21-.25-.07-.49-.14-.74-.21ZM114.08,167.24c-2.08.6-4.21,1.1-6.34,1.51l-.06.09c2.3-.46,4.58-1.04,6.82-1.71-.14.03-.28.07-.42.11ZM140.46,121.52h.01c2.14-3.09,4.28-6.18,6.42-9.27-2.14,3.09-4.28,6.18-6.43,9.27ZM137.25,126.15c-1.07,1.54-2.14,3.09-3.21,4.64h.01c2.13-3.1,4.28-6.17,6.41-9.27-1.07,1.54-2.14,3.09-3.21,4.63ZM174.51,85.4c.01.08.01.16.01.24v-.23h-.01ZM174.51,86.36c.02-.21,0-.51.01-.72,0,.24,0,.48-.01.72ZM138.32,64.95c-8.98,23-17.35,44.4-25.28,64.73l.04.14c8.81-22.56,17.59-45.27,26.41-67.84-.39.98-.78,1.98-1.17,2.97ZM147.77,21.43c-1.63-1.45-3.29-2.85-4.98-4.19,2.46,2.03,4.85,4.19,7.15,6.49-.57-.76-1.29-1.52-2.17-2.3ZM101.31,56.23c1.76-15.71,3.35-33.27,4.81-48.91-1.58,16.31-3.18,32.61-4.81,48.91ZM31.77,17.21c6.63-5.28,13.7-9.7,21.41-13.03-7.76,3.31-14.88,7.67-21.41,13.03Z"/>
        <path class="cls-1" d="M40.32,75.5c-.52-1.32-1.04-2.64-1.54-3.96.52,1.32,1.03,2.64,1.54,3.96Z"/>
        <path class="cls-1" d="M53.18,4.18c-7.71,3.33-14.78,7.75-21.41,13.03,6.53-5.36,13.65-9.72,21.41-13.03Z"/>
        <path class="cls-1" d="M149.94,23.73c-2.3-2.3-4.69-4.46-7.15-6.49,2.38,1.98,5.25,4.08,7.15,6.49Z"/>
        <path class="cls-1" d="M142.24,55.04c-9.53,24.22-20.17,51.65-29.16,74.79,0,0-.04-.14-.04-.15,9-23,19.21-49.36,29.2-74.64Z"/>
        <path class="cls-1" d="M114.73,167.06c-2.32.7-4.67,1.3-7.05,1.78l.06-.09c2.35-.45,4.69-1.03,6.99-1.69Z"/>
        <path class="cls-1" d="M174.52,85.41v.23c0-.08,0-.16-.01-.24h.01Z"/>
        <path class="cls-1" d="M.01,86.36c-.02-.11,0-.26-.01-.37,0,.12,0,.25.01.37Z"/>
      </g>
      <path class="cls-1" d="M99.38,164.68s-1.57,4.53-1.91,5.17c-6.74.77-13.68.77-20.42,0-.34-.64-1.91-5.17-1.91-5.17l12.03-46.27.09.35.09-.35,12.03,46.27Z"/>
      <g>
        <path class="cls-1" d="M140.46,121.52h.01c2.14-3.09,4.28-6.18,6.42-9.27-2.14,3.09-4.28,6.18-6.43,9.27ZM137.25,126.15c-1.07,1.54-2.14,3.09-3.21,4.64h.01c2.13-3.1,4.28-6.17,6.41-9.27-1.07,1.54-2.14,3.09-3.21,4.63ZM174.51,85.4c.01.08.01.16.01.24v-.23h-.01ZM174.51,86.36c.02-.21,0-.51.01-.72,0,.24,0,.48-.01.72ZM0,85.99c0,.11,0,.26.01.37-.01-.12-.01-.25-.01-.37ZM.83,73.58C.25,77.63-.02,81.65,0,85.64c.09-3.84.46-7.68,1.26-11.44-.14-.21-.29-.41-.43-.62ZM66.78,168.75c-2.39-.45-4.75-1.04-7.08-1.72,2.34.72,4.73,1.33,7.14,1.81-.02-.03-.04-.06-.06-.09ZM26.75,21.43c-.88.78-1.6,1.54-2.17,2.3,2.3-2.3,4.69-4.46,7.15-6.49-1.69,1.34-3.35,2.74-4.98,4.19ZM60.24,126.49c-7.42-19.01-15.54-39.79-24.04-61.54,8.4,21.59,16.83,43.32,25.24,64.87,0-.63-.58-1.54-1.2-3.33ZM34.7,61.12c-3.84-9.83-7.73-19.77-11.56-29.54,3.82,10.67,8.57,21.68,12.7,32.46-.38-.98-.76-1.95-1.14-2.92ZM68.4,7.32c-.26-1.92-.24-4.45-.81-6.18,2.01,18.13,3.57,37.07,5.62,55.09-1.63-16.3-3.23-32.6-4.81-48.91ZM113.15,1.15c-1.74-.44-5.68-2.28-6.19-.09,1.02-2.4,5.66.2,7.78.61-.53-.18-1.06-.35-1.59-.52Z"/>
        <path class="cls-1" d="M152.31,28.07c-11.61,33.36-27.49,70.05-39.27,101.61-.05.13-.08.2-.08.2l-13.47-53.68c-.09-.22-.2-.84-.27-1.07.75-5.76,3.68-33.74,4.69-44.05.88-9.58,1.73-18.78,2.61-27.91.22-2.78,1-3.8,4.31-2.69,14.53,4.54,34.22,13.95,41.48,27.59Z"/>
        <path class="cls-1" d="M114.74,1.67c-2.12-.41-6.76-3.01-7.78-.61.92-2.54,5.73.22,7.78.61Z"/>
        <path class="cls-1" d="M135.74,71.54c-.5,1.32-1.02,2.64-1.54,3.96.51-1.32,1.02-2.64,1.54-3.96Z"/>
        <path class="cls-1" d="M31.73,17.24c-2.46,2.03-4.85,4.19-7.15,6.49,1.9-2.41,4.77-4.5,7.15-6.49Z"/>
        <path class="cls-1" d="M61.48,129.67s-.04.15-.04.16c-11.86-30.92-26.02-66.35-38.3-98.25,12.56,32.06,26.48,67.74,38.34,98.09Z"/>
        <path class="cls-1" d="M75.3,75.13c-.07.28-.2.8-.27,1.07,0,0-13.47,53.68-13.47,53.68-10.56-27.05-22.98-58.87-34.33-87.85-5.35-14.26-8.87-14.29,4.54-24.82,3.31-3.45,36.21-24.04,36.1-14.4,1.81,20.09,5.42,54.96,7.43,72.32Z"/>
        <path class="cls-1" d="M70.61,31.08c-1.1-9.94-1.8-20.03-3.02-29.94,1.52,9.72,1.9,19.7,3.02,29.94Z"/>
        <path class="cls-1" d="M66.81,168.76s-.02,0-.03-.01C28.94,161.52.05,124.33,0,86.18c0,.06,0,.12.01.18-.01-4.1.44-8.21,1.26-12.23,21.89,31.6,43.62,62.99,65.54,94.63Z"/>
        <path class="cls-1" d="M1.26,74.2C.46,77.96.09,81.8,0,85.64c-.02-3.99.25-8.01.83-12.06.14.21.29.41.43.62Z"/>
        <path class="cls-1" d="M66.84,168.84c-2.41-.48-4.8-1.09-7.14-1.81,2.33.68,4.69,1.27,7.08,1.72.02.03.04.06.06.09Z"/>
        <path class="cls-1" d="M121.16,149.37c8.61-12.42,17.16-24.76,25.73-37.12-8.56,12.36-17.11,24.7-25.73,37.12Z"/>
        <path class="cls-1" d="M174.51,85.4h.01c.01-3.9-.26-7.85-.83-11.82-.14.21-.29.41-.43.62,0-.02-.01-.05-.01-.07-21.89,31.6-43.62,62.99-65.54,94.63.01,0,.02,0,.03-.01,37.9-7.24,66.82-44.53,66.78-82.74,0,.12,0,.23-.01.35,0-.32.02-.64,0-.96ZM146.89,112.25c-8.56,12.36-17.11,24.7-25.73,37.12,8.61-12.42,17.16-24.76,25.73-37.12Z"/>
        <path class="cls-1" d="M116.84,166.38c.22-.07.44-.14.66-.21-.44.15-.88.3-1.32.43.22-.07.44-.14.66-.22Z"/>
        <path class="cls-1" d="M174.52,85.64c0,.21,0,.51-.01.72.01-.24.01-.48.01-.72Z"/>
      </g>
    </g>
  </g>
</svg>